<svg width="155" height="259" viewBox="0 0 155 259" fill="none" xmlns="http://www.w3.org/2000/svg">
<path d="M-58.562 116.085C-4.4368 145.628 63.6179 132.305 102.631 84.5266C106.948 79.2399 114.584 78.1199 120.247 81.931L143.351 97.4741C149.758 101.786 151.105 110.632 146.313 116.694C134.096 132.146 119.595 145.397 103.064 156.191C83.259 169.124 61.4065 177.995 38.1066 182.557C14.8068 187.119 -8.7764 187.143 -31.987 182.632C-51.364 178.864 -69.7827 172.065 -86.9177 162.357C-93.6364 158.549 -95.7205 149.846 -91.4097 143.435L-75.8602 120.323C-72.0475 114.658 -64.5492 112.814 -58.562 116.085Z" fill="#FAF8F5"/>
</svg>
